<svg data-v-423bf9ae="" xmlns="http://www.w3.org/2000/svg" viewBox="0 0 250 107" class="iconLeftSlogan"><!----><!----><!----><g data-v-423bf9ae="" id="f78ec3b1-53da-4ec5-a51f-f9d415323630" fill="#000000" transform="matrix(5.813777446746826,0,0,5.813777446746826,100.68635559082031,-40.35579299926758)"><path d="M6.43 13.40L4.68 8.44L2.96 13.40L6.43 13.40ZM1.67 17.09L0.27 17.09L0.27 17.09Q0.36 16.88 0.46 16.66L0.46 16.66L0.46 16.66Q0.55 16.43 0.67 16.15L0.67 16.15L0.67 16.15Q0.78 15.87 0.92 15.50L0.92 15.50L0.92 15.50Q1.05 15.14 1.23 14.66L1.23 14.66L3.96 7.11L5.43 7.11L8.17 14.66L8.17 14.66Q8.34 15.14 8.48 15.50L8.48 15.50L8.48 15.50Q8.61 15.87 8.73 16.15L8.73 16.15L8.73 16.15Q8.85 16.43 8.94 16.66L8.94 16.66L8.94 16.66Q9.04 16.88 9.13 17.09L9.13 17.09L7.72 17.09L6.79 14.46L2.59 14.46L1.67 17.09ZM10.73 14.96L10.73 14.96L10.73 9.28L10.73 9.28Q10.73 8.80 10.72 8.38L10.72 8.38L10.72 8.38Q10.71 7.97 10.69 7.64L10.69 7.64L10.69 7.64Q10.67 7.31 10.63 7.11L10.63 7.11L10.63 7.11Q10.86 7.10 11.19 7.08L11.19 7.08L11.19 7.08Q11.53 7.07 11.93 7.06L11.93 7.06L11.93 7.06Q12.33 7.05 12.77 7.04L12.77 7.04L12.77 7.04Q13.21 7.04 13.64 7.04L13.64 7.04L13.64 7.04Q14.40 7.04 14.99 7.16L14.99 7.16L14.99 7.16Q15.59 7.29 15.99 7.57L15.99 7.57L15.99 7.57Q16.39 7.85 16.60 8.31L16.60 8.31L16.60 8.31Q16.82 8.76 16.82 9.43L16.82 9.43L16.82 9.43Q16.82 9.86 16.69 10.21L16.69 10.21L16.69 10.21Q16.56 10.55 16.33 10.82L16.33 10.82L16.33 10.82Q16.10 11.09 15.79 11.29L15.79 11.29L15.79 11.29Q15.49 11.49 15.14 11.62L15.14 11.62L15.14 11.62Q15.54 11.72 15.93 11.90L15.93 11.90L15.93 11.90Q16.32 12.09 16.63 12.39L16.63 12.39L16.63 12.39Q16.94 12.69 17.13 13.14L17.13 13.14L17.13 13.14Q17.33 13.58 17.33 14.22L17.33 14.22L17.33 14.22Q17.33 14.84 17.13 15.38L17.13 15.38L17.13 15.38Q16.93 15.91 16.48 16.31L16.48 16.31L16.48 16.31Q16.04 16.71 15.35 16.93L15.35 16.93L15.35 16.93Q14.66 17.16 13.67 17.16L13.67 17.16L13.67 17.16Q13.15 17.16 12.66 17.15L12.66 17.15L12.66 17.15Q12.17 17.14 11.77 17.13L11.77 17.13L11.77 17.13Q11.36 17.12 11.06 17.11L11.06 17.11L11.06 17.11Q10.77 17.10 10.63 17.09L10.63 17.09L10.63 17.09Q10.67 16.88 10.69 16.56L10.69 16.56L10.69 16.56Q10.71 16.24 10.72 15.84L10.72 15.84L10.72 15.84Q10.73 15.44 10.73 14.96ZM12.03 12.30L12.03 16.03L12.03 16.03Q12.13 16.04 12.29 16.04L12.29 16.04L12.29 16.04Q12.46 16.05 12.67 16.05L12.67 16.05L12.67 16.05Q12.89 16.06 13.16 16.06L13.16 16.06L13.16 16.06Q13.42 16.06 13.71 16.06L13.71 16.06L13.71 16.06Q14.14 16.06 14.56 15.98L14.56 15.98L14.56 15.98Q14.97 15.89 15.29 15.67L15.29 15.67L15.29 15.67Q15.61 15.46 15.80 15.11L15.80 15.11L15.80 15.11Q16.00 14.75 16.00 14.22L16.00 14.22L16.00 14.22Q16.00 13.27 15.42 12.79L15.42 12.79L15.42 12.79Q14.84 12.30 13.64 12.30L13.64 12.30L12.03 12.30ZM12.03 8.13L12.03 11.25L13.36 11.25L13.36 11.25Q13.91 11.25 14.31 11.13L14.31 11.13L14.31 11.13Q14.71 11.01 14.97 10.80L14.97 10.80L14.97 10.80Q15.23 10.59 15.36 10.29L15.36 10.29L15.36 10.29Q15.48 9.99 15.48 9.64L15.48 9.64L15.48 9.64Q15.48 9.26 15.38 8.97L15.38 8.97L15.38 8.97Q15.27 8.68 15.04 8.49L15.04 8.49L15.04 8.49Q14.81 8.29 14.45 8.20L14.45 8.20L14.45 8.20Q14.08 8.10 13.57 8.10L13.57 8.10L13.57 8.10Q13.37 8.10 13.15 8.10L13.15 8.10L13.15 8.10Q12.92 8.11 12.71 8.11L12.71 8.11L12.71 8.11Q12.50 8.12 12.32 8.12L12.32 8.12L12.32 8.12Q12.14 8.13 12.03 8.13L12.03 8.13ZM25.16 7.55L24.88 8.89L24.88 8.89Q24.51 8.68 24.20 8.54L24.20 8.54L24.20 8.54Q23.89 8.40 23.60 8.31L23.60 8.31L23.60 8.31Q23.30 8.22 23.01 8.18L23.01 8.18L23.01 8.18Q22.72 8.13 22.39 8.13L22.39 8.13L22.39 8.13Q21.98 8.13 21.64 8.26L21.64 8.26L21.64 8.26Q21.30 8.38 21.05 8.59L21.05 8.59L21.05 8.59Q20.81 8.79 20.68 9.06L20.68 9.06L20.68 9.06Q20.54 9.32 20.54 9.60L20.54 9.60L20.54 9.60Q20.54 9.88 20.62 10.11L20.62 10.11L20.62 10.11Q20.70 10.34 20.94 10.54L20.94 10.54L20.94 10.54Q21.18 10.75 21.62 10.94L21.62 10.94L21.62 10.94Q22.07 11.14 22.80 11.35L22.80 11.35L22.80 11.35Q23.47 11.55 24.00 11.81L24.00 11.81L24.00 11.81Q24.52 12.07 24.88 12.41L24.88 12.41L24.88 12.41Q25.23 12.76 25.42 13.19L25.42 13.19L25.42 13.19Q25.60 13.63 25.60 14.18L25.60 14.18L25.60 14.18Q25.60 14.88 25.33 15.44L25.33 15.44L25.33 15.44Q25.06 16.00 24.59 16.41L24.59 16.41L24.59 16.41Q24.12 16.82 23.50 17.04L23.50 17.04L23.50 17.04Q22.88 17.26 22.18 17.26L22.18 17.26L22.18 17.26Q21.69 17.26 21.22 17.19L21.22 17.19L21.22 17.19Q20.75 17.12 20.34 17.00L20.34 17.00L20.34 17.00Q19.93 16.88 19.58 16.71L19.58 16.71L19.58 16.71Q19.23 16.54 18.97 16.34L18.97 16.34L19.28 14.94L19.28 14.94Q19.96 15.53 20.69 15.80L20.69 15.80L20.69 15.80Q21.42 16.06 22.18 16.06L22.18 16.06L22.18 16.06Q22.59 16.06 22.98 15.95L22.98 15.95L22.98 15.95Q23.36 15.83 23.65 15.61L23.65 15.61L23.65 15.61Q23.95 15.39 24.12 15.06L24.12 15.06L24.12 15.06Q24.30 14.74 24.30 14.32L24.30 14.32L24.30 14.32Q24.30 14.05 24.22 13.81L24.22 13.81L24.22 13.81Q24.13 13.57 23.87 13.34L23.87 13.34L23.87 13.34Q23.61 13.10 23.13 12.88L23.13 12.88L23.13 12.88Q22.64 12.65 21.84 12.41L21.84 12.41L21.84 12.41Q21.04 12.17 20.54 11.88L20.54 11.88L20.54 11.88Q20.03 11.59 19.74 11.26L19.74 11.26L19.74 11.26Q19.46 10.92 19.35 10.53L19.35 10.53L19.35 10.53Q19.24 10.14 19.24 9.71L19.24 9.71L19.24 9.71Q19.24 9.27 19.42 8.78L19.42 8.78L19.42 8.78Q19.61 8.30 20.00 7.89L20.00 7.89L20.00 7.89Q20.38 7.48 20.99 7.21L20.99 7.21L20.99 7.21Q21.60 6.94 22.46 6.94L22.46 6.94L22.46 6.94Q22.85 6.94 23.20 6.97L23.20 6.97L23.20 6.97Q23.54 7.01 23.87 7.08L23.87 7.08L23.87 7.08Q24.19 7.16 24.51 7.27L24.51 7.27L24.51 7.27Q24.82 7.39 25.16 7.55L25.16 7.55Z"></path></g><defs data-v-423bf9ae=""><linearGradient data-v-423bf9ae="" gradientTransform="rotate(25)" id="95db3099-8f8e-496c-8fcd-76c82e8bcb93" x1="0%" y1="0%" x2="100%" y2="0%"><stop data-v-423bf9ae="" offset="0%" style="stop-color: rgb(66, 15, 20); stop-opacity: 1;"></stop><stop data-v-423bf9ae="" offset="100%" style="stop-color: rgb(197, 84, 94); stop-opacity: 1;"></stop></linearGradient></defs><g data-v-423bf9ae="" id="4edde615-2be7-4a91-a0d5-6252b97bdccd" transform="matrix(1.0868055820465088,0,0,1.0868055820465088,-13.253792762756348,-0.23839107155799866)" stroke="none" fill="url(#95db3099-8f8e-496c-8fcd-76c82e8bcb93)"><g clip-rule="evenodd"><path d="M12.983 10.59l17.018 88.223-5.872-59.049 29.021-1.892-.054-9.883L64.549 1 53.622 18.977z"></path><path d="M59.389 54.548l5.16-53.541-8.74 39.716-19.612 1.045 1.57 20.462-7.766 36.583 12.057-39.899z"></path><path d="M62.8 67.182l.549-10.453-15.979 3.755-.032 11.797-17.337 26.532 21.68-27.616zM65.711 62.394l14.841-4.731 1.509-12.532-15.899 2.095zM72.07 44.502l10.988-1.417 1.581-10.278-8.079-.373L64.549 1l8.43 30.967z"></path><path d="M87.413 31.294l1.256-9.506-9.544-2.694L64.549 1l14.483 22.437-.422 7z"></path></g></g><!----><g data-v-423bf9ae="" id="404aa05f-ea2f-4f16-b55e-7337bdc16606" fill="#000000" transform="matrix(0.47795578837394714,0,0,0.47795578837394714,102.10025787353516,57.279762268066406)"><path d="M1.59 6.36L0.32 6.14L0.38 5.89L2.45 5.89L7.17 13.17L7.17 6.33L5.92 6.16L5.96 5.89L8.86 5.89L8.80 6.16L7.67 6.32L7.67 14.44L7.30 14.52L2.09 6.65L2.09 13.95L3.35 14.08L3.28 14.40L0.40 14.40L0.44 14.11L1.59 13.90L1.59 6.36ZM17.77 6.36L16.54 6.18L16.59 5.89L22.78 5.89L22.57 8.07L22.26 8.03L22.13 6.24L18.48 6.24L18.48 9.89L20.77 9.89L21.02 8.94L21.39 8.89L21.16 11.55L20.82 11.61L20.71 10.26L18.48 10.26L18.48 14.03L22.32 14.03L22.83 12.19L23.11 12.26L22.90 14.40L16.56 14.40L16.60 14.11L17.77 13.90L17.77 6.36ZM31.80 6.34L30.80 6.14L30.82 5.89L33.72 5.89L33.69 6.14L32.55 6.32L34.91 13.30L37.49 6.34L36.22 6.14L36.24 5.89L38.90 5.89L38.88 6.14L37.99 6.32L34.98 14.47L34.63 14.57L31.80 6.34ZM47.82 6.36L46.60 6.18L46.65 5.89L52.84 5.89L52.63 8.07L52.32 8.03L52.19 6.24L48.54 6.24L48.54 9.89L50.83 9.89L51.08 8.94L51.45 8.89L51.22 11.55L50.87 11.61L50.76 10.26L48.54 10.26L48.54 14.03L52.38 14.03L52.88 12.19L53.16 12.26L52.96 14.40L46.62 14.40L46.66 14.11L47.82 13.90L47.82 6.36ZM62.69 6.18L62.69 10.11L64.24 10.11L64.24 10.11Q64.93 9.86 65.39 9.28L65.39 9.28L65.39 9.28Q65.84 8.70 65.84 8.02L65.84 8.02L65.84 8.02Q65.84 7.11 65.23 6.63L65.23 6.63L65.23 6.63Q64.61 6.15 63.52 6.15L63.52 6.15L62.69 6.18ZM64.07 14.40L60.87 14.40L60.92 14.11L61.99 13.90L61.99 6.51L60.89 6.37L60.96 6.13L60.96 6.13Q62.78 5.83 63.86 5.83L63.86 5.83L63.86 5.83Q64.63 5.83 65.24 6.05L65.24 6.05L65.24 6.05Q65.84 6.27 66.22 6.73L66.22 6.73L66.22 6.73Q66.60 7.19 66.60 7.83L66.60 7.83L66.60 7.83Q66.60 8.57 66.17 9.14L66.17 9.14L66.17 9.14Q65.74 9.72 64.71 10.23L64.71 10.23L64.71 10.23L66.03 12.19L66.03 12.19Q66.74 13.23 67.08 13.58L67.08 13.58L67.08 13.58Q67.43 13.92 67.81 14.05L67.81 14.05L68.14 14.16L68.10 14.42L68.10 14.42Q67.81 14.52 67.46 14.52L67.46 14.52L67.46 14.52Q67.18 14.52 66.92 14.40L66.92 14.40L66.92 14.40Q66.67 14.28 66.43 14.01L66.43 14.01L66.43 14.01Q66.19 13.75 66.00 13.48L66.00 13.48L66.00 13.48Q65.82 13.22 65.54 12.77L65.54 12.77L64.16 10.49L62.69 10.49L62.69 13.95L64.13 14.08L64.07 14.40ZM91.91 14.40L85.76 14.40L85.79 14.11L86.95 13.90L86.95 6.34L85.77 6.17L85.80 5.90L88.91 5.90L88.88 6.17L87.68 6.32L87.68 14.03L91.30 14.03L91.83 12.09L92.13 12.14L91.91 14.40ZM100.63 9.75L100.63 9.75L100.63 9.75Q100.63 11.03 100.99 12.01L100.99 12.01L100.99 12.01Q101.35 13.00 102.07 13.57L102.07 13.57L102.07 13.57Q102.79 14.14 103.76 14.14L103.76 14.14L103.76 14.14Q104.34 14.14 104.83 13.92L104.83 13.92L104.83 13.92Q105.32 13.70 105.67 13.33L105.67 13.33L105.67 13.33Q106.01 12.96 106.25 12.49L106.25 12.49L106.25 12.49Q106.50 12.01 106.61 11.50L106.61 11.50L106.61 11.50Q106.73 10.99 106.73 10.48L106.73 10.48L106.73 10.48Q106.73 8.50 105.88 7.29L105.88 7.29L105.88 7.29Q105.03 6.07 103.58 6.07L103.58 6.07L103.58 6.07Q103.00 6.07 102.50 6.28L102.50 6.28L102.50 6.28Q102.01 6.49 101.67 6.85L101.67 6.85L101.67 6.85Q101.33 7.21 101.09 7.69L101.09 7.69L101.09 7.69Q100.85 8.16 100.74 8.69L100.74 8.69L100.74 8.69Q100.63 9.21 100.63 9.75ZM99.87 10.16L99.87 10.16L99.87 10.16Q99.87 8.16 100.97 6.92L100.97 6.92L100.97 6.92Q102.07 5.69 103.91 5.69L103.91 5.69L103.91 5.69Q105.04 5.69 105.86 6.27L105.86 6.27L105.86 6.27Q106.67 6.86 107.07 7.84L107.07 7.84L107.07 7.84Q107.47 8.83 107.47 10.11L107.47 10.11L107.47 10.11Q107.47 10.75 107.32 11.38L107.32 11.38L107.32 11.38Q107.17 12.00 106.84 12.58L106.84 12.58L106.84 12.58Q106.52 13.17 106.06 13.61L106.06 13.61L106.06 13.61Q105.59 14.05 104.92 14.32L104.92 14.32L104.92 14.32Q104.24 14.58 103.43 14.58L103.43 14.58L103.43 14.58Q102.38 14.58 101.56 13.98L101.56 13.98L101.56 13.98Q100.73 13.37 100.30 12.37L100.30 12.37L100.30 12.37Q99.87 11.37 99.87 10.16ZM115.20 13.60L115.20 13.60L115.40 11.66L115.73 11.71L115.92 13.21L115.92 13.21Q116.15 13.64 116.68 13.89L116.68 13.89L116.68 13.89Q117.21 14.14 117.81 14.14L117.81 14.14L117.81 14.14Q118.49 14.14 118.97 13.74L118.97 13.74L118.97 13.74Q119.45 13.33 119.45 12.61L119.45 12.61L119.45 12.61Q119.45 12.20 119.24 11.83L119.24 11.83L119.24 11.83Q119.02 11.46 118.68 11.18L118.68 11.18L118.68 11.18Q118.33 10.90 117.91 10.63L117.91 10.63L117.91 10.63Q117.49 10.36 117.07 10.07L117.07 10.07L117.07 10.07Q116.66 9.79 116.31 9.48L116.31 9.48L116.31 9.48Q115.96 9.17 115.75 8.75L115.75 8.75L115.75 8.75Q115.53 8.33 115.53 7.84L115.53 7.84L115.53 7.84Q115.53 6.88 116.23 6.29L116.23 6.29L116.23 6.29Q116.92 5.71 117.80 5.71L117.80 5.71L117.80 5.71Q118.39 5.71 118.93 5.90L118.93 5.90L118.93 5.90Q119.47 6.09 119.80 6.46L119.80 6.46L119.57 8.58L119.26 8.53L119.08 6.87L119.08 6.87Q118.89 6.54 118.47 6.32L118.47 6.32L118.47 6.32Q118.06 6.10 117.63 6.10L117.63 6.10L117.63 6.10Q117.03 6.10 116.62 6.48L116.62 6.48L116.62 6.48Q116.20 6.87 116.20 7.52L116.20 7.52L116.20 7.52Q116.20 7.96 116.43 8.35L116.43 8.35L116.43 8.35Q116.65 8.74 117.00 9.03L117.00 9.03L117.00 9.03Q117.35 9.32 117.78 9.61L117.78 9.61L117.78 9.61Q118.20 9.89 118.63 10.17L118.63 10.17L118.63 10.17Q119.05 10.45 119.41 10.75L119.41 10.75L119.41 10.75Q119.76 11.05 119.98 11.45L119.98 11.45L119.98 11.45Q120.20 11.85 120.20 12.29L120.20 12.29L120.20 12.29Q120.20 13.28 119.45 13.93L119.45 13.93L119.45 13.93Q118.70 14.57 117.46 14.57L117.46 14.57L117.46 14.57Q116.74 14.57 116.14 14.30L116.14 14.30L116.14 14.30Q115.54 14.03 115.20 13.60ZM129.14 6.36L127.92 6.18L127.97 5.89L134.16 5.89L133.95 8.07L133.64 8.03L133.51 6.24L129.86 6.24L129.86 9.89L132.15 9.89L132.40 8.94L132.77 8.89L132.54 11.55L132.19 11.61L132.08 10.26L129.86 10.26L129.86 14.03L133.70 14.03L134.20 12.19L134.48 12.26L134.28 14.40L127.94 14.40L127.98 14.11L129.14 13.90L129.14 6.36ZM156.17 6.98L154.80 10.75L157.49 10.75L156.17 6.98ZM154.85 14.40L152.12 14.40L152.15 14.11L153.13 13.90L156.12 5.82L156.48 5.73L159.32 13.95L160.22 14.08L160.17 14.39L157.37 14.39L157.43 14.10L158.57 13.90L157.62 11.13L154.66 11.13L153.65 13.95L154.91 14.08L154.85 14.40ZM179.72 6.19L179.72 14.03L180.95 14.03L180.95 14.03Q182.75 14.03 183.85 12.95L183.85 12.95L183.85 12.95Q184.95 11.87 184.95 10.12L184.95 10.12L184.95 10.12Q184.95 8.20 183.89 7.18L183.89 7.18L183.89 7.18Q182.84 6.16 180.91 6.16L180.91 6.16L180.91 6.16Q179.91 6.16 179.72 6.19L179.72 6.19ZM180.76 14.40L177.82 14.40L177.87 14.11L179.03 13.90L179.03 6.51L177.85 6.36L177.92 6.12L177.92 6.12Q180.00 5.79 181.16 5.79L181.16 5.79L181.16 5.79Q182.12 5.79 182.90 6.03L182.90 6.03L182.90 6.03Q183.67 6.26 184.19 6.66L184.19 6.66L184.19 6.66Q184.70 7.05 185.04 7.59L185.04 7.59L185.04 7.59Q185.38 8.13 185.53 8.71L185.53 8.71L185.53 8.71Q185.68 9.29 185.68 9.92L185.68 9.92L185.68 9.92Q185.68 10.64 185.51 11.28L185.51 11.28L185.51 11.28Q185.34 11.93 184.96 12.50L184.96 12.50L184.96 12.50Q184.58 13.08 184.01 13.49L184.01 13.49L184.01 13.49Q183.45 13.91 182.62 14.15L182.62 14.15L182.62 14.15Q181.79 14.40 180.76 14.40L180.76 14.40ZM194.56 6.33L193.38 6.16L193.42 5.89L196.55 5.89L196.50 6.16L195.30 6.32L195.30 13.95L196.62 14.08L196.56 14.40L193.45 14.40L193.48 14.11L194.56 13.90L194.56 6.33ZM207.14 14.40L204.31 14.40L204.34 14.17L205.48 13.96L206.05 6.36L204.79 6.14L204.84 5.89L207.02 5.89L207.50 7.18L209.65 12.84L212.10 6.88L212.52 5.89L214.74 5.89L214.71 6.14L213.53 6.34L213.91 14.01L215.14 14.12L215.13 14.40L211.97 14.40L212.01 14.17L213.18 13.96L212.79 6.41L209.61 13.99L209.27 14.05L206.48 6.53L205.94 14.01L207.18 14.12L207.14 14.40ZM224.06 6.36L222.84 6.18L222.89 5.89L229.08 5.89L228.87 8.07L228.55 8.03L228.42 6.24L224.77 6.24L224.77 9.89L227.06 9.89L227.32 8.94L227.68 8.89L227.46 11.55L227.11 11.61L227.00 10.26L224.77 10.26L224.77 14.03L228.61 14.03L229.12 12.19L229.40 12.26L229.20 14.40L222.86 14.40L222.90 14.11L224.06 13.90L224.06 6.36ZM237.22 13.92L237.22 13.92L237.22 13.92Q237.22 13.25 237.65 13.25L237.65 13.25L237.65 13.25Q238.08 13.25 238.08 13.92L238.08 13.92L238.08 13.92Q238.08 14.62 237.65 14.62L237.65 14.62L237.65 14.62Q237.22 14.62 237.22 13.92ZM245.97 13.92L245.97 13.92L245.97 13.92Q245.97 13.25 246.40 13.25L246.40 13.25L246.40 13.25Q246.83 13.25 246.83 13.92L246.83 13.92L246.83 13.92Q246.83 14.62 246.40 14.62L246.40 14.62L246.40 14.62Q245.97 14.62 245.97 13.92Z"></path></g></svg>