<svg data-v-fde0c5aa="" xmlns="http://www.w3.org/2000/svg" viewBox="0 0 300 300" class="font"><!----><defs data-v-fde0c5aa=""><!----></defs><rect data-v-fde0c5aa="" fill="transparent" x="0" y="0" width="300px" height="300px" class="logo-background-square"></rect><defs data-v-fde0c5aa=""><linearGradient data-v-fde0c5aa="" gradientTransform="rotate(25)" id="40c78ae4-b94f-4ac7-8756-658587f7e6cc" x1="0%" y1="0%" x2="100%" y2="0%"><stop data-v-fde0c5aa="" offset="0%" stop-color="#420F14" stop-opacity="1"></stop><stop data-v-fde0c5aa="" offset="100%" stop-color="#C5545E" stop-opacity="1"></stop></linearGradient></defs><g data-v-fde0c5aa="" id="14b93a2b-7f4c-4271-9e71-f947c9f439f9" fill="url(#40c78ae4-b94f-4ac7-8756-658587f7e6cc)" transform="matrix(8.684657096862793,0,0,8.684657096862793,37.659213569776405,44.90208172706245)"><path d="M6.43 13.40L4.68 8.44L2.96 13.40L6.43 13.40ZM1.67 17.09L0.27 17.09L0.27 17.09Q0.36 16.88 0.46 16.66L0.46 16.66L0.46 16.66Q0.55 16.43 0.67 16.15L0.67 16.15L0.67 16.15Q0.78 15.87 0.92 15.50L0.92 15.50L0.92 15.50Q1.05 15.14 1.23 14.66L1.23 14.66L3.96 7.11L5.43 7.11L8.17 14.66L8.17 14.66Q8.34 15.14 8.48 15.50L8.48 15.50L8.48 15.50Q8.61 15.87 8.73 16.15L8.73 16.15L8.73 16.15Q8.85 16.43 8.94 16.66L8.94 16.66L8.94 16.66Q9.04 16.88 9.13 17.09L9.13 17.09L7.72 17.09L6.79 14.46L2.59 14.46L1.67 17.09ZM10.73 14.96L10.73 14.96L10.73 9.28L10.73 9.28Q10.73 8.80 10.72 8.38L10.72 8.38L10.72 8.38Q10.71 7.97 10.69 7.64L10.69 7.64L10.69 7.64Q10.67 7.31 10.63 7.11L10.63 7.11L10.63 7.11Q10.86 7.10 11.19 7.08L11.19 7.08L11.19 7.08Q11.53 7.07 11.93 7.06L11.93 7.06L11.93 7.06Q12.33 7.05 12.77 7.04L12.77 7.04L12.77 7.04Q13.21 7.04 13.64 7.04L13.64 7.04L13.64 7.04Q14.40 7.04 14.99 7.16L14.99 7.16L14.99 7.16Q15.59 7.29 15.99 7.57L15.99 7.57L15.99 7.57Q16.39 7.85 16.60 8.31L16.60 8.31L16.60 8.31Q16.82 8.76 16.82 9.43L16.82 9.43L16.82 9.43Q16.82 9.86 16.69 10.21L16.69 10.21L16.69 10.21Q16.56 10.55 16.33 10.82L16.33 10.82L16.33 10.82Q16.10 11.09 15.79 11.29L15.79 11.29L15.79 11.29Q15.49 11.49 15.14 11.62L15.14 11.62L15.14 11.62Q15.54 11.72 15.93 11.90L15.93 11.90L15.93 11.90Q16.32 12.09 16.63 12.39L16.63 12.39L16.63 12.39Q16.94 12.69 17.13 13.14L17.13 13.14L17.13 13.14Q17.33 13.58 17.33 14.22L17.33 14.22L17.33 14.22Q17.33 14.84 17.13 15.38L17.13 15.38L17.13 15.38Q16.93 15.91 16.48 16.31L16.48 16.31L16.48 16.31Q16.04 16.71 15.35 16.93L15.35 16.93L15.35 16.93Q14.66 17.16 13.67 17.16L13.67 17.16L13.67 17.16Q13.15 17.16 12.66 17.15L12.66 17.15L12.66 17.15Q12.17 17.14 11.77 17.13L11.77 17.13L11.77 17.13Q11.36 17.12 11.06 17.11L11.06 17.11L11.06 17.11Q10.77 17.10 10.63 17.09L10.63 17.09L10.63 17.09Q10.67 16.88 10.69 16.56L10.69 16.56L10.69 16.56Q10.71 16.24 10.72 15.84L10.72 15.84L10.72 15.84Q10.73 15.44 10.73 14.96ZM12.03 12.30L12.03 16.03L12.03 16.03Q12.13 16.04 12.29 16.04L12.29 16.04L12.29 16.04Q12.46 16.05 12.67 16.05L12.67 16.05L12.67 16.05Q12.89 16.06 13.16 16.06L13.16 16.06L13.16 16.06Q13.42 16.06 13.71 16.06L13.71 16.06L13.71 16.06Q14.14 16.06 14.56 15.98L14.56 15.98L14.56 15.98Q14.97 15.89 15.29 15.67L15.29 15.67L15.29 15.67Q15.61 15.46 15.80 15.11L15.80 15.11L15.80 15.11Q16.00 14.75 16.00 14.22L16.00 14.22L16.00 14.22Q16.00 13.27 15.42 12.79L15.42 12.79L15.42 12.79Q14.84 12.30 13.64 12.30L13.64 12.30L12.03 12.30ZM12.03 8.13L12.03 11.25L13.36 11.25L13.36 11.25Q13.91 11.25 14.31 11.13L14.31 11.13L14.31 11.13Q14.71 11.01 14.97 10.80L14.97 10.80L14.97 10.80Q15.23 10.59 15.36 10.29L15.36 10.29L15.36 10.29Q15.48 9.99 15.48 9.64L15.48 9.64L15.48 9.64Q15.48 9.26 15.38 8.97L15.38 8.97L15.38 8.97Q15.27 8.68 15.04 8.49L15.04 8.49L15.04 8.49Q14.81 8.29 14.45 8.20L14.45 8.20L14.45 8.20Q14.08 8.10 13.57 8.10L13.57 8.10L13.57 8.10Q13.37 8.10 13.15 8.10L13.15 8.10L13.15 8.10Q12.92 8.11 12.71 8.11L12.71 8.11L12.71 8.11Q12.50 8.12 12.32 8.12L12.32 8.12L12.32 8.12Q12.14 8.13 12.03 8.13L12.03 8.13ZM25.16 7.55L24.88 8.89L24.88 8.89Q24.51 8.68 24.20 8.54L24.20 8.54L24.20 8.54Q23.89 8.40 23.60 8.31L23.60 8.31L23.60 8.31Q23.30 8.22 23.01 8.18L23.01 8.18L23.01 8.18Q22.72 8.13 22.39 8.13L22.39 8.13L22.39 8.13Q21.98 8.13 21.64 8.26L21.64 8.26L21.64 8.26Q21.30 8.38 21.05 8.59L21.05 8.59L21.05 8.59Q20.81 8.79 20.68 9.06L20.68 9.06L20.68 9.06Q20.54 9.32 20.54 9.60L20.54 9.60L20.54 9.60Q20.54 9.88 20.62 10.11L20.62 10.11L20.62 10.11Q20.70 10.34 20.94 10.54L20.94 10.54L20.94 10.54Q21.18 10.75 21.62 10.94L21.62 10.94L21.62 10.94Q22.07 11.14 22.80 11.35L22.80 11.35L22.80 11.35Q23.47 11.55 24.00 11.81L24.00 11.81L24.00 11.81Q24.52 12.07 24.88 12.41L24.88 12.41L24.88 12.41Q25.23 12.76 25.42 13.19L25.42 13.19L25.42 13.19Q25.60 13.63 25.60 14.18L25.60 14.18L25.60 14.18Q25.60 14.88 25.33 15.44L25.33 15.44L25.33 15.44Q25.06 16.00 24.59 16.41L24.59 16.41L24.59 16.41Q24.12 16.82 23.50 17.04L23.50 17.04L23.50 17.04Q22.88 17.26 22.18 17.26L22.18 17.26L22.18 17.26Q21.69 17.26 21.22 17.19L21.22 17.19L21.22 17.19Q20.75 17.12 20.34 17.00L20.34 17.00L20.34 17.00Q19.93 16.88 19.58 16.71L19.58 16.71L19.58 16.71Q19.23 16.54 18.97 16.34L18.97 16.34L19.28 14.94L19.28 14.94Q19.96 15.53 20.69 15.80L20.69 15.80L20.69 15.80Q21.42 16.06 22.18 16.06L22.18 16.06L22.18 16.06Q22.59 16.06 22.98 15.95L22.98 15.95L22.98 15.95Q23.36 15.83 23.65 15.61L23.65 15.61L23.65 15.61Q23.95 15.39 24.12 15.06L24.12 15.06L24.12 15.06Q24.30 14.74 24.30 14.32L24.30 14.32L24.30 14.32Q24.30 14.05 24.22 13.81L24.22 13.81L24.22 13.81Q24.13 13.57 23.87 13.34L23.87 13.34L23.87 13.34Q23.61 13.10 23.13 12.88L23.13 12.88L23.13 12.88Q22.64 12.65 21.84 12.41L21.84 12.41L21.84 12.41Q21.04 12.17 20.54 11.88L20.54 11.88L20.54 11.88Q20.03 11.59 19.74 11.26L19.74 11.26L19.74 11.26Q19.46 10.92 19.35 10.53L19.35 10.53L19.35 10.53Q19.24 10.14 19.24 9.71L19.24 9.71L19.24 9.71Q19.24 9.27 19.42 8.78L19.42 8.78L19.42 8.78Q19.61 8.30 20.00 7.89L20.00 7.89L20.00 7.89Q20.38 7.48 20.99 7.21L20.99 7.21L20.99 7.21Q21.60 6.94 22.46 6.94L22.46 6.94L22.46 6.94Q22.85 6.94 23.20 6.97L23.20 6.97L23.20 6.97Q23.54 7.01 23.87 7.08L23.87 7.08L23.87 7.08Q24.19 7.16 24.51 7.27L24.51 7.27L24.51 7.27Q24.82 7.39 25.16 7.55L25.16 7.55Z"></path></g><!----><!----></svg>